<?xml version="1.0" encoding="UTF-8" standalone="no"?>
<!DOCTYPE svg PUBLIC "-//W3C//DTD SVG 1.1//EN"
 "http://www.w3.org/Graphics/SVG/1.1/DTD/svg11.dtd">
<!-- Generated by graphviz version 2.36.0 (20140111.2315)
 -->
<!-- Title: controllers_diagram Pages: 1 -->
<svg width="324pt" height="209pt"
 viewBox="0.00 0.00 324.00 209.00" xmlns="http://www.w3.org/2000/svg" xmlns:xlink="http://www.w3.org/1999/xlink">
<g id="graph0" class="graph" transform="scale(1 1) rotate(0) translate(4 205)">
<title>controllers_diagram</title>
<polygon fill="none" stroke="none" points="-4,4 -4,-205 320,-205 320,4 -4,4"/>
<!-- _diagram_info -->
<g id="node1" class="node"><title>_diagram_info</title>
<text text-anchor="start" x="8" y="-63.6" font-family="Times,serif" font-size="13.00">Controllers diagram</text>
<text text-anchor="start" x="8" y="-49.6" font-family="Times,serif" font-size="13.00">Date: Jun 30 2018 &#45; 18:46</text>
<text text-anchor="start" x="8" y="-35.6" font-family="Times,serif" font-size="13.00">Migration version: 20180630100502</text>
<text text-anchor="start" x="8" y="-21.6" font-family="Times,serif" font-size="13.00">Generated by RailRoady 1.5.3</text>
<text text-anchor="start" x="8" y="-7.6" font-family="Times,serif" font-size="13.00">http://railroady.prestonlee.com</text>
</g>
<!-- ApplicationController -->
<g id="node2" class="node"><title>ApplicationController</title>
<path fill="none" stroke="black" d="M192,-105.5C192,-105.5 304,-105.5 304,-105.5 310,-105.5 316,-111.5 316,-117.5 316,-117.5 316,-188.5 316,-188.5 316,-194.5 310,-200.5 304,-200.5 304,-200.5 192,-200.5 192,-200.5 186,-200.5 180,-194.5 180,-188.5 180,-188.5 180,-117.5 180,-117.5 180,-111.5 186,-105.5 192,-105.5"/>
<text text-anchor="middle" x="248" y="-185.3" font-family="Times,serif" font-size="14.00">ApplicationController</text>
<polyline fill="none" stroke="black" points="180,-177.5 316,-177.5 "/>
<polyline fill="none" stroke="black" points="180,-153.5 316,-153.5 "/>
<polyline fill="none" stroke="black" points="180,-129.5 316,-129.5 "/>
</g>
</g>
</svg>
