<?xml version="1.0" encoding="UTF-8" standalone="no"?>
<!DOCTYPE svg PUBLIC "-//W3C//DTD SVG 1.1//EN"
 "http://www.w3.org/Graphics/SVG/1.1/DTD/svg11.dtd">
<!-- Generated by graphviz version 2.36.0 (20140111.2315)
 -->
<!-- Title: models_diagram Pages: 1 -->
<svg width="467pt" height="302pt"
 viewBox="0.00 0.00 467.00 302.00" xmlns="http://www.w3.org/2000/svg" xmlns:xlink="http://www.w3.org/1999/xlink">
<g id="graph0" class="graph" transform="scale(1 1) rotate(0) translate(4 298)">
<title>models_diagram</title>
<polygon fill="none" stroke="none" points="-4,4 -4,-298 463,-298 463,4 -4,4"/>
<!-- _diagram_info -->
<g id="node1" class="node"><title>_diagram_info</title>
<text text-anchor="start" x="8" y="-279.6" font-family="Times,serif" font-size="13.00">Models diagram</text>
<text text-anchor="start" x="8" y="-265.6" font-family="Times,serif" font-size="13.00">Date: Jun 30 2018 &#45; 18:46</text>
<text text-anchor="start" x="8" y="-251.6" font-family="Times,serif" font-size="13.00">Migration version: 20180630100502</text>
<text text-anchor="start" x="8" y="-237.6" font-family="Times,serif" font-size="13.00">Generated by RailRoady 1.5.3</text>
<text text-anchor="start" x="8" y="-223.6" font-family="Times,serif" font-size="13.00">http://railroady.prestonlee.com</text>
</g>
<!-- Product -->
<g id="node2" class="node"><title>Product</title>
<ellipse fill="none" stroke="black" cx="184" cy="-90" rx="38.0212" ry="18"/>
<text text-anchor="middle" x="184" y="-86.3" font-family="Times,serif" font-size="14.00">Product</text>
</g>
<!-- Purchase -->
<g id="node6" class="node"><title>Purchase</title>
<ellipse fill="none" stroke="black" cx="250" cy="-18" rx="42.3701" ry="18"/>
<text text-anchor="middle" x="250" y="-14.3" font-family="Times,serif" font-size="14.00">Purchase</text>
</g>
<!-- Product&#45;&gt;Purchase -->
<g id="edge1" class="edge"><title>Product&#45;&gt;Purchase</title>
<path fill="none" stroke="#7da94b" d="M204.478,-67.2809C211.777,-59.5393 220.036,-50.7799 227.496,-42.8677"/>
<ellipse fill="none" stroke="#7da94b" cx="201.72" cy="-70.2055" rx="4.00002" ry="4.00002"/>
<polygon fill="#7da94b" stroke="#7da94b" points="227.765,-42.5829 237.899,-38.3941 231.195,-38.945 234.625,-35.307 234.625,-35.307 234.625,-35.307 231.195,-38.945 231.351,-32.2199 227.765,-42.5829 227.765,-42.5829"/>
</g>
<!-- Order -->
<g id="node3" class="node"><title>Order</title>
<ellipse fill="none" stroke="black" cx="229" cy="-162" rx="31.2965" ry="18"/>
<text text-anchor="middle" x="229" y="-158.3" font-family="Times,serif" font-size="14.00">Order</text>
</g>
<!-- Order&#45;&gt;Product -->
<g id="edge3" class="edge"><title>Order&#45;&gt;Product</title>
<path fill="none" stroke="#764ddd" d="M213.014,-136.132C208.835,-129.633 204.329,-122.623 200.143,-116.111"/>
<polygon fill="#764ddd" stroke="#764ddd" points="213.155,-136.353 214.778,-147.198 215.859,-140.559 218.563,-144.765 218.563,-144.765 218.563,-144.765 215.859,-140.559 222.348,-142.331 213.155,-136.353 213.155,-136.353"/>
<polygon fill="#764ddd" stroke="#764ddd" points="200.101,-116.045 198.478,-105.2 197.397,-111.839 194.693,-107.633 194.693,-107.633 194.693,-107.633 197.397,-111.839 190.908,-110.067 200.101,-116.045 200.101,-116.045"/>
</g>
<!-- Order&#45;&gt;Purchase -->
<g id="edge2" class="edge"><title>Order&#45;&gt;Purchase</title>
<path fill="none" stroke="#c30aef" d="M232.708,-135.929C236.435,-110.725 242.163,-71.9942 245.993,-46.0947"/>
<ellipse fill="none" stroke="#c30aef" cx="232.118" cy="-139.915" rx="4.00001" ry="4.00001"/>
<polygon fill="#c30aef" stroke="#c30aef" points="245.995,-46.0817 251.91,-36.8476 246.726,-41.1355 247.458,-36.1893 247.458,-36.1893 247.458,-36.1893 246.726,-41.1355 243.006,-35.5309 245.995,-46.0817 245.995,-46.0817"/>
</g>
<!-- User -->
<g id="node4" class="node"><title>User</title>
<ellipse fill="none" stroke="black" cx="259" cy="-255" rx="26.949" ry="18"/>
<text text-anchor="middle" x="259" y="-251.3" font-family="Times,serif" font-size="14.00">User</text>
</g>
<!-- User&#45;&gt;Order -->
<g id="edge5" class="edge"><title>User&#45;&gt;Order</title>
<path fill="none" stroke="#b0122c" d="M250.937,-229.543C246.852,-217.152 241.887,-202.09 237.714,-189.432"/>
<ellipse fill="none" stroke="#b0122c" cx="252.245" cy="-233.51" rx="4.00001" ry="4.00001"/>
<polygon fill="#b0122c" stroke="#b0122c" points="237.7,-189.39 238.843,-178.484 236.135,-184.642 234.569,-179.893 234.569,-179.893 234.569,-179.893 236.135,-184.642 230.295,-181.302 237.7,-189.39 237.7,-189.39"/>
</g>
<!-- User&#45;&gt;Purchase -->
<g id="edge4" class="edge"><title>User&#45;&gt;Purchase</title>
<path fill="none" stroke="#6940e5" d="M263.214,-229.101C265.423,-214.786 267.895,-196.435 269,-180 272.173,-132.82 262.998,-78.2234 256.316,-46.2654"/>
<ellipse fill="none" stroke="#6940e5" cx="262.583" cy="-233.068" rx="4.00001" ry="4.00001"/>
<polygon fill="#6940e5" stroke="#6940e5" points="256.283,-46.1123 258.565,-35.3865 255.225,-41.2256 254.167,-36.3388 254.167,-36.3388 254.167,-36.3388 255.225,-41.2256 249.769,-37.291 256.283,-46.1123 256.283,-46.1123"/>
</g>
<!-- ApplicationRecord -->
<g id="node5" class="node"><title>ApplicationRecord</title>
<ellipse fill="none" stroke="black" cx="382" cy="-255" rx="77.0154" ry="18"/>
<text text-anchor="middle" x="382" y="-251.3" font-family="Times,serif" font-size="14.00">ApplicationRecord</text>
</g>
</g>
</svg>
