<?xml version="1.0" encoding="UTF-8" standalone="no"?>
<!DOCTYPE svg PUBLIC "-//W3C//DTD SVG 1.1//EN"
 "http://www.w3.org/Graphics/SVG/1.1/DTD/svg11.dtd">
<!-- Generated by graphviz version 2.36.0 (20140111.2315)
 -->
<!-- Title: models_diagram Pages: 1 -->
<svg width="564pt" height="622pt"
 viewBox="0.00 0.00 564.00 622.00" xmlns="http://www.w3.org/2000/svg" xmlns:xlink="http://www.w3.org/1999/xlink">
<g id="graph0" class="graph" transform="scale(1 1) rotate(0) translate(4 618)">
<title>models_diagram</title>
<polygon fill="none" stroke="none" points="-4,4 -4,-618 560,-618 560,4 -4,4"/>
<!-- _diagram_info -->
<g id="node1" class="node"><title>_diagram_info</title>
<text text-anchor="start" x="8" y="-584.6" font-family="Times,serif" font-size="13.00">Models diagram</text>
<text text-anchor="start" x="8" y="-570.6" font-family="Times,serif" font-size="13.00">Date: Jun 30 2018 &#45; 18:46</text>
<text text-anchor="start" x="8" y="-556.6" font-family="Times,serif" font-size="13.00">Migration version: 20180630100502</text>
<text text-anchor="start" x="8" y="-542.6" font-family="Times,serif" font-size="13.00">Generated by RailRoady 1.5.3</text>
<text text-anchor="start" x="8" y="-528.6" font-family="Times,serif" font-size="13.00">http://railroady.prestonlee.com</text>
</g>
<!-- Product -->
<g id="node2" class="node"><title>Product</title>
<path fill="none" stroke="black" d="M169.5,-205C169.5,-205 276.5,-205 276.5,-205 282.5,-205 288.5,-211 288.5,-217 288.5,-217 288.5,-299 288.5,-299 288.5,-305 282.5,-311 276.5,-311 276.5,-311 169.5,-311 169.5,-311 163.5,-311 157.5,-305 157.5,-299 157.5,-299 157.5,-217 157.5,-217 157.5,-211 163.5,-205 169.5,-205"/>
<text text-anchor="middle" x="223" y="-295.8" font-family="Times,serif" font-size="14.00">Product</text>
<polyline fill="none" stroke="black" points="157.5,-288 288.5,-288 "/>
<text text-anchor="start" x="165.5" y="-272.8" font-family="Times,serif" font-size="14.00">id :integer</text>
<text text-anchor="start" x="165.5" y="-257.8" font-family="Times,serif" font-size="14.00">name :varchar</text>
<text text-anchor="start" x="165.5" y="-242.8" font-family="Times,serif" font-size="14.00">price :integer</text>
<text text-anchor="start" x="165.5" y="-227.8" font-family="Times,serif" font-size="14.00">created_at :datetime</text>
<text text-anchor="start" x="165.5" y="-212.8" font-family="Times,serif" font-size="14.00">updated_at :datetime</text>
</g>
<!-- Purchase -->
<g id="node6" class="node"><title>Purchase</title>
<path fill="none" stroke="black" d="M263.5,-1C263.5,-1 370.5,-1 370.5,-1 376.5,-1 382.5,-7 382.5,-13 382.5,-13 382.5,-155 382.5,-155 382.5,-161 376.5,-167 370.5,-167 370.5,-167 263.5,-167 263.5,-167 257.5,-167 251.5,-161 251.5,-155 251.5,-155 251.5,-13 251.5,-13 251.5,-7 257.5,-1 263.5,-1"/>
<text text-anchor="middle" x="317" y="-151.8" font-family="Times,serif" font-size="14.00">Purchase</text>
<polyline fill="none" stroke="black" points="251.5,-144 382.5,-144 "/>
<text text-anchor="start" x="259.5" y="-128.8" font-family="Times,serif" font-size="14.00">id :integer</text>
<text text-anchor="start" x="259.5" y="-113.8" font-family="Times,serif" font-size="14.00">order_id :integer</text>
<text text-anchor="start" x="259.5" y="-98.8" font-family="Times,serif" font-size="14.00">user_id :integer</text>
<text text-anchor="start" x="259.5" y="-83.8" font-family="Times,serif" font-size="14.00">product_id :integer</text>
<text text-anchor="start" x="259.5" y="-68.8" font-family="Times,serif" font-size="14.00">quantity :integer</text>
<text text-anchor="start" x="259.5" y="-53.8" font-family="Times,serif" font-size="14.00">price :integer</text>
<text text-anchor="start" x="259.5" y="-38.8" font-family="Times,serif" font-size="14.00">total :integer</text>
<text text-anchor="start" x="259.5" y="-23.8" font-family="Times,serif" font-size="14.00">created_at :datetime</text>
<text text-anchor="start" x="259.5" y="-8.8" font-family="Times,serif" font-size="14.00">updated_at :datetime</text>
</g>
<!-- Product&#45;&gt;Purchase -->
<g id="edge1" class="edge"><title>Product&#45;&gt;Purchase</title>
<path fill="none" stroke="#4354d1" d="M255.35,-197.807C259.162,-190.832 263.116,-183.596 267.099,-176.309"/>
<ellipse fill="none" stroke="#4354d1" cx="253.376" cy="-201.418" rx="4.00002" ry="4.00002"/>
<polygon fill="#4354d1" stroke="#4354d1" points="267.353,-175.842 276.098,-169.225 269.751,-171.455 272.149,-167.067 272.149,-167.067 272.149,-167.067 269.751,-171.455 268.2,-164.909 267.353,-175.842 267.353,-175.842"/>
</g>
<!-- Order -->
<g id="node3" class="node"><title>Order</title>
<path fill="none" stroke="black" d="M207.5,-348.5C207.5,-348.5 314.5,-348.5 314.5,-348.5 320.5,-348.5 326.5,-354.5 326.5,-360.5 326.5,-360.5 326.5,-457.5 326.5,-457.5 326.5,-463.5 320.5,-469.5 314.5,-469.5 314.5,-469.5 207.5,-469.5 207.5,-469.5 201.5,-469.5 195.5,-463.5 195.5,-457.5 195.5,-457.5 195.5,-360.5 195.5,-360.5 195.5,-354.5 201.5,-348.5 207.5,-348.5"/>
<text text-anchor="middle" x="261" y="-454.3" font-family="Times,serif" font-size="14.00">Order</text>
<polyline fill="none" stroke="black" points="195.5,-446.5 326.5,-446.5 "/>
<text text-anchor="start" x="203.5" y="-431.3" font-family="Times,serif" font-size="14.00">id :integer</text>
<text text-anchor="start" x="203.5" y="-416.3" font-family="Times,serif" font-size="14.00">total :integer</text>
<text text-anchor="start" x="203.5" y="-401.3" font-family="Times,serif" font-size="14.00">user_id :integer</text>
<text text-anchor="start" x="203.5" y="-386.3" font-family="Times,serif" font-size="14.00">created_at :datetime</text>
<text text-anchor="start" x="203.5" y="-371.3" font-family="Times,serif" font-size="14.00">updated_at :datetime</text>
<text text-anchor="start" x="203.5" y="-356.3" font-family="Times,serif" font-size="14.00">status :integer</text>
</g>
<!-- Order&#45;&gt;Product -->
<g id="edge3" class="edge"><title>Order&#45;&gt;Product</title>
<path fill="none" stroke="#fce148" d="M243.238,-338.356C241.775,-332.617 240.301,-326.84 238.853,-321.16"/>
<polygon fill="#fce148" stroke="#fce148" points="243.292,-338.565 241.402,-349.367 244.527,-343.41 245.763,-348.255 245.763,-348.255 245.763,-348.255 244.527,-343.41 250.123,-347.142 243.292,-338.565 243.292,-338.565"/>
<polygon fill="#fce148" stroke="#fce148" points="238.752,-320.764 240.641,-309.962 237.516,-315.919 236.281,-311.074 236.281,-311.074 236.281,-311.074 237.516,-315.919 231.92,-312.186 238.752,-320.764 238.752,-320.764"/>
</g>
<!-- Order&#45;&gt;Purchase -->
<g id="edge2" class="edge"><title>Order&#45;&gt;Purchase</title>
<path fill="none" stroke="#4c5fb8" d="M288.816,-340.754C291.992,-331.224 294.854,-321.451 297,-312 306.916,-268.34 311.973,-218.92 314.53,-177.365"/>
<ellipse fill="none" stroke="#4c5fb8" cx="287.51" cy="-344.552" rx="4.00001" ry="4.00001"/>
<polygon fill="#4c5fb8" stroke="#4c5fb8" points="314.537,-177.238 319.605,-167.513 314.825,-172.246 315.113,-167.254 315.113,-167.254 315.113,-167.254 314.825,-172.246 310.62,-166.995 314.537,-177.238 314.537,-177.238"/>
</g>
<!-- User -->
<g id="node4" class="node"><title>User</title>
<path fill="none" stroke="black" d="M244.5,-507C244.5,-507 371.5,-507 371.5,-507 377.5,-507 383.5,-513 383.5,-519 383.5,-519 383.5,-601 383.5,-601 383.5,-607 377.5,-613 371.5,-613 371.5,-613 244.5,-613 244.5,-613 238.5,-613 232.5,-607 232.5,-601 232.5,-601 232.5,-519 232.5,-519 232.5,-513 238.5,-507 244.5,-507"/>
<text text-anchor="middle" x="308" y="-597.8" font-family="Times,serif" font-size="14.00">User</text>
<polyline fill="none" stroke="black" points="232.5,-590 383.5,-590 "/>
<text text-anchor="start" x="240.5" y="-574.8" font-family="Times,serif" font-size="14.00">id :integer</text>
<text text-anchor="start" x="240.5" y="-559.8" font-family="Times,serif" font-size="14.00">email :varchar</text>
<text text-anchor="start" x="240.5" y="-544.8" font-family="Times,serif" font-size="14.00">password_diges :varchar</text>
<text text-anchor="start" x="240.5" y="-529.8" font-family="Times,serif" font-size="14.00">created_at :datetime</text>
<text text-anchor="start" x="240.5" y="-514.8" font-family="Times,serif" font-size="14.00">updated_at :datetime</text>
</g>
<!-- User&#45;&gt;Order -->
<g id="edge5" class="edge"><title>User&#45;&gt;Order</title>
<path fill="none" stroke="#d43478" d="M289.134,-499.192C287.078,-492.672 284.972,-485.996 282.883,-479.374"/>
<ellipse fill="none" stroke="#d43478" cx="290.358" cy="-503.072" rx="4.00001" ry="4.00001"/>
<polygon fill="#d43478" stroke="#d43478" points="282.851,-479.272 284.134,-468.382 281.347,-474.504 279.843,-469.735 279.843,-469.735 279.843,-469.735 281.347,-474.504 275.551,-471.089 282.851,-479.272 282.851,-479.272"/>
</g>
<!-- User&#45;&gt;Purchase -->
<g id="edge4" class="edge"><title>User&#45;&gt;Purchase</title>
<path fill="none" stroke="#c452a4" d="M328.827,-498.925C331.387,-489.355 333.593,-479.483 335,-470 349.706,-370.865 341.043,-255.946 331.322,-177.646"/>
<ellipse fill="none" stroke="#c452a4" cx="327.68" cy="-503.026" rx="4.00001" ry="4.00001"/>
<polygon fill="#c452a4" stroke="#c452a4" points="331.271,-177.246 334.472,-166.757 330.639,-172.286 330.008,-167.326 330.008,-167.326 330.008,-167.326 330.639,-172.286 325.544,-167.894 331.271,-177.246 331.271,-177.246"/>
</g>
<!-- ApplicationRecord -->
<g id="node5" class="node"><title>ApplicationRecord</title>
<ellipse fill="none" stroke="black" cx="479" cy="-560" rx="77.0154" ry="18"/>
<text text-anchor="middle" x="479" y="-556.3" font-family="Times,serif" font-size="14.00">ApplicationRecord</text>
</g>
</g>
</svg>
